<?xml version="1.0" encoding="utf-8"?>
<!-- Generator: Adobe Illustrator 19.2.1, SVG Export Plug-In . SVG Version: 6.00 Build 0)  -->
<svg version="1.1" id="Layer_1" xmlns="http://www.w3.org/2000/svg" xmlns:xlink="http://www.w3.org/1999/xlink" x="0px" y="0px"
	 viewBox="0 0 1280 270.6" style="enable-background:new 0 0 1280 270.6;" xml:space="preserve">
<g>
	<path d="M110.7,94.8l-69.1,41.7l69.1,41.5l-11.1,16.3l-77.3-48.1v-19.5l77.9-48.1L110.7,94.8z"/>
	<path d="M219.3,146.2c0,33.8-17.3,56-48.1,56c-31,0-48.1-21.3-48.1-55.8c0-33.2,17.3-56,48.3-56S219.3,112.3,219.3,146.2z
		 M146.8,146.4c0,26.4,8.1,38.5,24.4,38.5c16.3,0,24.4-12.1,24.4-38.7c0-26.2-8.1-38.3-24.2-38.3C155,107.9,146.8,120,146.8,146.4z"
		/>
	<path d="M233.4,93.2h19.5l1.6,13.9c8.9-10.9,21.5-16.7,34.4-16.7c19.7,0,29.6,11.7,29.6,31.6v77.5H296v-66.2
		c0-18.5-2.2-25.6-15.1-25.6c-10.5,0-19.3,7.5-25,15.5v76.3h-22.6V93.2z"/>
	<path d="M385.8,184.6c10.3,0,18.9-3.2,28-9.3l9.7,13.7c-9.9,8.1-23.8,13.1-38.7,13.1c-33.2,0-51.3-22.6-51.3-55.8
		c0-31.8,18.3-56,48.5-56c28.2,0,45.9,20.1,45.9,53.2c0,3.6-0.2,7.5-0.6,10.1h-70.5C358.2,175.4,370.5,184.6,385.8,184.6z
		 M356.6,138.3h49.3c-0.4-20.1-8.7-31.2-23.8-31.2C368.1,107.1,358,117,356.6,138.3z"/>
	<path d="M434.9,217.8h100.7v18.5H434.9V217.8z"/>
	<path d="M594.2,170.5c0,9.9,6.6,13.5,16.1,13.5c6,0,11.5-1.4,16.9-3.6l5.6,15.7c-6.2,3.4-15.5,6-27.4,6
		c-21.3,0-33.8-12.7-33.8-33.6V67h-32V50.5h54.6V170.5z"/>
	<path d="M710.2,183h29v16.5H656V183h31.6v-73.3H657V93.2h53.2V183z M709.3,55.4c0,8.1-6,14.1-14.7,14.1c-8.9,0-14.7-6-14.7-14.1
		c0-8.1,5.8-14.3,14.7-14.3C703.3,41.1,709.3,47.3,709.3,55.4z"/>
	<path d="M756.9,93.2h19.5l1.6,13.9c8.9-10.9,21.5-16.7,34.4-16.7c19.7,0,29.6,11.7,29.6,31.6v77.5h-22.6v-66.2
		c0-18.5-2.2-25.6-15.1-25.6c-10.5,0-19.3,7.5-25,15.5v76.3h-22.6V93.2z"/>
	<path d="M909.3,184.6c10.3,0,18.9-3.2,28-9.3l9.7,13.7c-9.9,8.1-23.8,13.1-38.7,13.1c-33.2,0-51.3-22.6-51.3-55.8
		c0-31.8,18.3-56,48.5-56c28.2,0,45.9,20.1,45.9,53.2c0,3.6-0.2,7.5-0.6,10.1h-70.5C881.7,175.4,894,184.6,909.3,184.6z
		 M880.1,138.3h49.3c-0.4-20.1-8.7-31.2-23.8-31.2C891.6,107.1,881.5,117,880.1,138.3z"/>
	<path d="M1057.7,93.2l-3.8,39.3h-16.1v-21.7c-15.1,0.4-26,12.5-32.2,33.2v39.5h21.3v16.1h-59.6v-16.1H983v-74.1h-15.7V93.2h32.8
		l4,24.6c8.1-17.7,19.1-27.2,37.5-27.2C1048,90.6,1052.9,91.6,1057.7,93.2z"/>
	<path d="M1061.9,212.8L1147.3,36l17.7,8.3l-85.2,176.6L1061.9,212.8z"/>
	<path d="M1262.5,126.6v19.5l-77.3,48.1l-11.1-16.1l68.9-41.7l-68.9-41.3l10.5-16.7L1262.5,126.6z"/>
</g>
</svg>
